<mxfile host="app.diagrams.net" modified="2023-09-14T09:33:49.412Z" agent="Mozilla/5.0 (Macintosh; Intel Mac OS X 10_15_7) AppleWebKit/537.36 (KHTML, like Gecko) Chrome/116.0.0.0 Safari/537.36" version="21.7.4" etag="R-BivHa1iB-9j8OvCB7b" type="github">
  <diagram name="第 1 页" id="6NaQloGQ7L1Y3iIBhBhr">
    <mxGraphModel>
      <root>
        <mxCell id="0" />
        <mxCell id="1" parent="0" />
      </root>
    </mxGraphModel>
  </diagram>
</mxfile>
